<svg xmlns="http://www.w3.org/2000/svg" width="1512" height="978" fill="none" viewBox="0 0 1512 978"><g clip-path="url(#clip0_204_881)"><mask id="mask0_204_881" style="mask-type:luminance" width="1512" height="982" x="0" y="-4" maskUnits="userSpaceOnUse"><path fill="url(#paint0_radial_204_881)" d="M1512 -4H0V978H1512V-4Z"/></mask><g mask="url(#mask0_204_881)"><path stroke="#E5E5E5" stroke-width="1.512" d="M76 -4H0V72H76V-4Z"/><path stroke="#E5E5E5" stroke-width="1.512" d="M152 -4H76V72H152V-4Z"/><path fill="#E5E5E5" fill-opacity=".541" stroke="#E5E5E5" stroke-width="1.512" d="M228 -4H152V72H228V-4Z"/><path stroke="#E5E5E5" stroke-width="1.512" d="M304 -4H228V72H304V-4Z"/><path stroke="#E5E5E5" stroke-width="1.512" d="M380 -4H304V72H380V-4Z"/><path fill="#E5E5E5" fill-opacity=".278" stroke="#E5E5E5" stroke-width="1.512" d="M456 -4H380V72H456V-4Z"/><path fill="#E5E5E5" fill-opacity=".588" stroke="#E5E5E5" stroke-width="1.512" d="M532 -4H456V72H532V-4Z"/><path stroke="#E5E5E5" stroke-width="1.512" d="M608 -4H532V72H608V-4Z"/><path stroke="#E5E5E5" stroke-width="1.512" d="M684 -4H608V72H684V-4Z"/><path stroke="#E5E5E5" stroke-width="1.512" d="M760 -4H684V72H760V-4Z"/><path stroke="#E5E5E5" stroke-width="1.512" d="M836 -4H760V72H836V-4Z"/><path stroke="#E5E5E5" stroke-width="1.512" d="M912 -4H836V72H912V-4Z"/><path fill="#E5E5E5" fill-opacity=".871" stroke="#E5E5E5" stroke-width="1.512" d="M988 -4H912V72H988V-4Z"/><path stroke="#E5E5E5" stroke-width="1.512" d="M1064 -4H988V72H1064V-4Z"/><path stroke="#E5E5E5" stroke-width="1.512" d="M1140 -4H1064V72H1140V-4Z"/><path stroke="#E5E5E5" stroke-width="1.512" d="M1216 -4H1140V72H1216V-4Z"/><path fill="#E5E5E5" fill-opacity=".627" stroke="#E5E5E5" stroke-width="1.512" d="M1292 -4H1216V72H1292V-4Z"/><path stroke="#E5E5E5" stroke-width="1.512" d="M1368 -4H1292V72H1368V-4Z"/><path stroke="#E5E5E5" stroke-width="1.512" d="M1444 -4H1368V72H1444V-4Z"/><path stroke="#E5E5E5" stroke-width="1.512" d="M1520 -4H1444V72H1520V-4Z"/><path fill="#E5E5E5" fill-opacity=".878" stroke="#E5E5E5" stroke-width="1.512" d="M76 72H0V148H76V72Z"/><path stroke="#E5E5E5" stroke-width="1.512" d="M152 72H76V148H152V72Z"/><path stroke="#E5E5E5" stroke-width="1.512" d="M228 72H152V148H228V72Z"/><path stroke="#E5E5E5" stroke-width="1.512" d="M304 72H228V148H304V72Z"/><path fill="#E5E5E5" fill-opacity=".545" stroke="#E5E5E5" stroke-width="1.512" d="M380 72H304V148H380V72Z"/><path stroke="#E5E5E5" stroke-width="1.512" d="M456 72H380V148H456V72Z"/><path fill="#E5E5E5" fill-opacity=".686" stroke="#E5E5E5" stroke-width="1.512" d="M532 72H456V148H532V72Z"/><path stroke="#E5E5E5" stroke-width="1.512" d="M608 72H532V148H608V72Z"/><path fill="#E5E5E5" fill-opacity=".447" stroke="#E5E5E5" stroke-width="1.512" d="M684 72H608V148H684V72Z"/><path stroke="#E5E5E5" stroke-width="1.512" d="M760 72H684V148H760V72Z"/><path fill="#E5E5E5" fill-opacity=".09" stroke="#E5E5E5" stroke-width="1.512" d="M836 72H760V148H836V72Z"/><path stroke="#E5E5E5" stroke-width="1.512" d="M912 72H836V148H912V72Z"/><path stroke="#E5E5E5" stroke-width="1.512" d="M988 72H912V148H988V72Z"/><path fill="#E5E5E5" fill-opacity=".09" stroke="#E5E5E5" stroke-width="1.512" d="M1064 72H988V148H1064V72Z"/><path stroke="#E5E5E5" stroke-width="1.512" d="M1140 72H1064V148H1140V72Z"/><path stroke="#E5E5E5" stroke-width="1.512" d="M1216 72H1140V148H1216V72Z"/><path stroke="#E5E5E5" stroke-width="1.512" d="M1292 72H1216V148H1292V72Z"/><path stroke="#E5E5E5" stroke-width="1.512" d="M1368 72H1292V148H1368V72Z"/><path fill="#E5E5E5" fill-opacity=".424" stroke="#E5E5E5" stroke-width="1.512" d="M1444 72H1368V148H1444V72Z"/><path fill="#E5E5E5" fill-opacity=".267" stroke="#E5E5E5" stroke-width="1.512" d="M1520 72H1444V148H1520V72Z"/><path stroke="#E5E5E5" stroke-width="1.512" d="M76 148H0V224H76V148Z"/><path stroke="#E5E5E5" stroke-width="1.512" d="M152 148H76V224H152V148Z"/><path stroke="#E5E5E5" stroke-width="1.512" d="M228 148H152V224H228V148Z"/><path fill="#E5E5E5" fill-opacity=".612" stroke="#E5E5E5" stroke-width="1.512" d="M304 148H228V224H304V148Z"/><path stroke="#E5E5E5" stroke-width="1.512" d="M380 148H304V224H380V148Z"/><path stroke="#E5E5E5" stroke-width="1.512" d="M456 148H380V224H456V148Z"/><path stroke="#E5E5E5" stroke-width="1.512" d="M532 148H456V224H532V148Z"/><path stroke="#E5E5E5" stroke-width="1.512" d="M608 148H532V224H608V148Z"/><path stroke="#E5E5E5" stroke-width="1.512" d="M684 148H608V224H684V148Z"/><path fill="#E5E5E5" fill-opacity=".486" stroke="#E5E5E5" stroke-width="1.512" d="M760 148H684V224H760V148Z"/><path stroke="#E5E5E5" stroke-width="1.512" d="M836 148H760V224H836V148Z"/><path stroke="#E5E5E5" stroke-width="1.512" d="M912 148H836V224H912V148Z"/><path fill="#E5E5E5" fill-opacity=".161" stroke="#E5E5E5" stroke-width="1.512" d="M988 148H912V224H988V148Z"/><path stroke="#E5E5E5" stroke-width="1.512" d="M1064 148H988V224H1064V148Z"/><path stroke="#E5E5E5" stroke-width="1.512" d="M1140 148H1064V224H1140V148Z"/><path stroke="#E5E5E5" stroke-width="1.512" d="M1216 148H1140V224H1216V148Z"/><path fill="#E5E5E5" fill-opacity=".522" stroke="#E5E5E5" stroke-width="1.512" d="M1292 148H1216V224H1292V148Z"/><path fill="#E5E5E5" fill-opacity=".431" stroke="#E5E5E5" stroke-width="1.512" d="M1368 148H1292V224H1368V148Z"/><path fill="#E5E5E5" fill-opacity=".145" stroke="#E5E5E5" stroke-width="1.512" d="M1444 148H1368V224H1444V148Z"/><path stroke="#E5E5E5" stroke-width="1.512" d="M1520 148H1444V224H1520V148Z"/><path stroke="#E5E5E5" stroke-width="1.512" d="M76 224H0V300H76V224Z"/><path fill="#E5E5E5" fill-opacity=".459" stroke="#E5E5E5" stroke-width="1.512" d="M152 224H76V300H152V224Z"/><path stroke="#E5E5E5" stroke-width="1.512" d="M228 224H152V300H228V224Z"/><path stroke="#E5E5E5" stroke-width="1.512" d="M304 224H228V300H304V224Z"/><path stroke="#E5E5E5" stroke-width="1.512" d="M380 224H304V300H380V224Z"/><path stroke="#E5E5E5" stroke-width="1.512" d="M456 224H380V300H456V224Z"/><path stroke="#E5E5E5" stroke-width="1.512" d="M532 224H456V300H532V224Z"/><path stroke="#E5E5E5" stroke-width="1.512" d="M608 224H532V300H608V224Z"/><path fill="#E5E5E5" fill-opacity=".816" stroke="#E5E5E5" stroke-width="1.512" d="M684 224H608V300H684V224Z"/><path stroke="#E5E5E5" stroke-width="1.512" d="M760 224H684V300H760V224Z"/><path stroke="#E5E5E5" stroke-width="1.512" d="M836 224H760V300H836V224Z"/><path stroke="#E5E5E5" stroke-width="1.512" d="M912 224H836V300H912V224Z"/><path fill="#E5E5E5" fill-opacity=".812" stroke="#E5E5E5" stroke-width="1.512" d="M988 224H912V300H988V224Z"/><path stroke="#E5E5E5" stroke-width="1.512" d="M1064 224H988V300H1064V224Z"/><path fill="#E5E5E5" fill-opacity=".318" stroke="#E5E5E5" stroke-width="1.512" d="M1140 224H1064V300H1140V224Z"/><path stroke="#E5E5E5" stroke-width="1.512" d="M1216 224H1140V300H1216V224Z"/><path fill="#E5E5E5" fill-opacity=".392" stroke="#E5E5E5" stroke-width="1.512" d="M1292 224H1216V300H1292V224Z"/><path stroke="#E5E5E5" stroke-width="1.512" d="M1368 224H1292V300H1368V224Z"/><path fill="#E5E5E5" fill-opacity=".514" stroke="#E5E5E5" stroke-width="1.512" d="M1444 224H1368V300H1444V224Z"/><path stroke="#E5E5E5" stroke-width="1.512" d="M1520 224H1444V300H1520V224Z"/><path stroke="#E5E5E5" stroke-width="1.512" d="M76 300H0V376H76V300Z"/><path stroke="#E5E5E5" stroke-width="1.512" d="M152 300H76V376H152V300Z"/><path stroke="#E5E5E5" stroke-width="1.512" d="M228 300H152V376H228V300Z"/><path fill="#E5E5E5" fill-opacity=".973" stroke="#E5E5E5" stroke-width="1.512" d="M304 300H228V376H304V300Z"/><path stroke="#E5E5E5" stroke-width="1.512" d="M380 300H304V376H380V300Z"/><path fill="#E5E5E5" fill-opacity=".047" stroke="#E5E5E5" stroke-width="1.512" d="M456 300H380V376H456V300Z"/><path stroke="#E5E5E5" stroke-width="1.512" d="M532 300H456V376H532V300Z"/><path stroke="#E5E5E5" stroke-width="1.512" d="M608 300H532V376H608V300Z"/><path stroke="#E5E5E5" stroke-width="1.512" d="M684 300H608V376H684V300Z"/><path stroke="#E5E5E5" stroke-width="1.512" d="M760 300H684V376H760V300Z"/><path stroke="#E5E5E5" stroke-width="1.512" d="M836 300H760V376H836V300Z"/><path stroke="#E5E5E5" stroke-width="1.512" d="M912 300H836V376H912V300Z"/><path stroke="#E5E5E5" stroke-width="1.512" d="M988 300H912V376H988V300Z"/><path fill="#E5E5E5" fill-opacity=".773" stroke="#E5E5E5" stroke-width="1.512" d="M1064 300H988V376H1064V300Z"/><path fill="#E5E5E5" fill-opacity=".984" stroke="#E5E5E5" stroke-width="1.512" d="M1140 300H1064V376H1140V300Z"/><path stroke="#E5E5E5" stroke-width="1.512" d="M1216 300H1140V376H1216V300Z"/><path stroke="#E5E5E5" stroke-width="1.512" d="M1292 300H1216V376H1292V300Z"/><path stroke="#E5E5E5" stroke-width="1.512" d="M1368 300H1292V376H1368V300Z"/><path stroke="#E5E5E5" stroke-width="1.512" d="M1444 300H1368V376H1444V300Z"/><path stroke="#E5E5E5" stroke-width="1.512" d="M1520 300H1444V376H1520V300Z"/><path stroke="#E5E5E5" stroke-width="1.512" d="M76 376H0V452H76V376Z"/><path stroke="#E5E5E5" stroke-width="1.512" d="M152 376H76V452H152V376Z"/><path stroke="#E5E5E5" stroke-width="1.512" d="M228 376H152V452H228V376Z"/><path fill="#E5E5E5" fill-opacity=".969" stroke="#E5E5E5" stroke-width="1.512" d="M304 376H228V452H304V376Z"/><path stroke="#E5E5E5" stroke-width="1.512" d="M380 376H304V452H380V376Z"/><path stroke="#E5E5E5" stroke-width="1.512" d="M456 376H380V452H456V376Z"/><path fill="#E5E5E5" fill-opacity=".616" stroke="#E5E5E5" stroke-width="1.512" d="M532 376H456V452H532V376Z"/><path stroke="#E5E5E5" stroke-width="1.512" d="M608 376H532V452H608V376Z"/><path stroke="#E5E5E5" stroke-width="1.512" d="M684 376H608V452H684V376Z"/><path stroke="#E5E5E5" stroke-width="1.512" d="M760 376H684V452H760V376Z"/><path stroke="#E5E5E5" stroke-width="1.512" d="M836 376H760V452H836V376Z"/><path fill="#E5E5E5" fill-opacity=".42" stroke="#E5E5E5" stroke-width="1.512" d="M912 376H836V452H912V376Z"/><path stroke="#E5E5E5" stroke-width="1.512" d="M988 376H912V452H988V376Z"/><path stroke="#E5E5E5" stroke-width="1.512" d="M1064 376H988V452H1064V376Z"/><path stroke="#E5E5E5" stroke-width="1.512" d="M1140 376H1064V452H1140V376Z"/><path stroke="#E5E5E5" stroke-width="1.512" d="M1216 376H1140V452H1216V376Z"/><path stroke="#E5E5E5" stroke-width="1.512" d="M1292 376H1216V452H1292V376Z"/><path stroke="#E5E5E5" stroke-width="1.512" d="M1368 376H1292V452H1368V376Z"/><path fill="#E5E5E5" fill-opacity=".918" stroke="#E5E5E5" stroke-width="1.512" d="M1444 376H1368V452H1444V376Z"/><path stroke="#E5E5E5" stroke-width="1.512" d="M1520 376H1444V452H1520V376Z"/><path stroke="#E5E5E5" stroke-width="1.512" d="M76 452H0V528H76V452Z"/><path stroke="#E5E5E5" stroke-width="1.512" d="M152 452H76V528H152V452Z"/><path fill="#E5E5E5" fill-opacity=".322" stroke="#E5E5E5" stroke-width="1.512" d="M228 452H152V528H228V452Z"/><path stroke="#E5E5E5" stroke-width="1.512" d="M304 452H228V528H304V452Z"/><path stroke="#E5E5E5" stroke-width="1.512" d="M380 452H304V528H380V452Z"/><path stroke="#E5E5E5" stroke-width="1.512" d="M456 452H380V528H456V452Z"/><path stroke="#E5E5E5" stroke-width="1.512" d="M532 452H456V528H532V452Z"/><path stroke="#E5E5E5" stroke-width="1.512" d="M608 452H532V528H608V452Z"/><path stroke="#E5E5E5" stroke-width="1.512" d="M684 452H608V528H684V452Z"/><path fill="#E5E5E5" fill-opacity=".322" stroke="#E5E5E5" stroke-width="1.512" d="M760 452H684V528H760V452Z"/><path fill="#E5E5E5" fill-opacity=".239" stroke="#E5E5E5" stroke-width="1.512" d="M836 452H760V528H836V452Z"/><path stroke="#E5E5E5" stroke-width="1.512" d="M912 452H836V528H912V452Z"/><path stroke="#E5E5E5" stroke-width="1.512" d="M988 452H912V528H988V452Z"/><path fill="#E5E5E5" fill-opacity=".094" stroke="#E5E5E5" stroke-width="1.512" d="M1064 452H988V528H1064V452Z"/><path stroke="#E5E5E5" stroke-width="1.512" d="M1140 452H1064V528H1140V452Z"/><path stroke="#E5E5E5" stroke-width="1.512" d="M1216 452H1140V528H1216V452Z"/><path fill="#E5E5E5" fill-opacity=".502" stroke="#E5E5E5" stroke-width="1.512" d="M1292 452H1216V528H1292V452Z"/><path fill="#E5E5E5" fill-opacity=".137" stroke="#E5E5E5" stroke-width="1.512" d="M1368 452H1292V528H1368V452Z"/><path fill="#E5E5E5" fill-opacity=".047" stroke="#E5E5E5" stroke-width="1.512" d="M1444 452H1368V528H1444V452Z"/><path stroke="#E5E5E5" stroke-width="1.512" d="M1520 452H1444V528H1520V452Z"/><path fill="#E5E5E5" fill-opacity=".988" stroke="#E5E5E5" stroke-width="1.512" d="M76 528H0V604H76V528Z"/><path stroke="#E5E5E5" stroke-width="1.512" d="M152 528H76V604H152V528Z"/><path stroke="#E5E5E5" stroke-width="1.512" d="M228 528H152V604H228V528Z"/><path stroke="#E5E5E5" stroke-width="1.512" d="M304 528H228V604H304V528Z"/><path stroke="#E5E5E5" stroke-width="1.512" d="M380 528H304V604H380V528Z"/><path fill="#E5E5E5" fill-opacity=".537" stroke="#E5E5E5" stroke-width="1.512" d="M456 528H380V604H456V528Z"/><path stroke="#E5E5E5" stroke-width="1.512" d="M532 528H456V604H532V528Z"/><path stroke="#E5E5E5" stroke-width="1.512" d="M608 528H532V604H608V528Z"/><path stroke="#E5E5E5" stroke-width="1.512" d="M684 528H608V604H684V528Z"/><path stroke="#E5E5E5" stroke-width="1.512" d="M760 528H684V604H760V528Z"/><path stroke="#E5E5E5" stroke-width="1.512" d="M836 528H760V604H836V528Z"/><path fill="#E5E5E5" fill-opacity=".506" stroke="#E5E5E5" stroke-width="1.512" d="M912 528H836V604H912V528Z"/><path fill="#E5E5E5" fill-opacity=".545" stroke="#E5E5E5" stroke-width="1.512" d="M988 528H912V604H988V528Z"/><path fill="#E5E5E5" fill-opacity=".027" stroke="#E5E5E5" stroke-width="1.512" d="M1064 528H988V604H1064V528Z"/><path fill="#E5E5E5" fill-opacity=".267" stroke="#E5E5E5" stroke-width="1.512" d="M1140 528H1064V604H1140V528Z"/><path stroke="#E5E5E5" stroke-width="1.512" d="M1216 528H1140V604H1216V528Z"/><path stroke="#E5E5E5" stroke-width="1.512" d="M1292 528H1216V604H1292V528Z"/><path fill="#E5E5E5" fill-opacity=".357" stroke="#E5E5E5" stroke-width="1.512" d="M1368 528H1292V604H1368V528Z"/><path stroke="#E5E5E5" stroke-width="1.512" d="M1444 528H1368V604H1444V528Z"/><path stroke="#E5E5E5" stroke-width="1.512" d="M1520 528H1444V604H1520V528Z"/><path fill="#E5E5E5" fill-opacity=".592" stroke="#E5E5E5" stroke-width="1.512" d="M76 604H0V680H76V604Z"/><path fill="#E5E5E5" fill-opacity=".224" stroke="#E5E5E5" stroke-width="1.512" d="M152 604H76V680H152V604Z"/><path fill="#E5E5E5" fill-opacity=".49" stroke="#E5E5E5" stroke-width="1.512" d="M228 604H152V680H228V604Z"/><path fill="#E5E5E5" fill-opacity=".255" stroke="#E5E5E5" stroke-width="1.512" d="M304 604H228V680H304V604Z"/><path stroke="#E5E5E5" stroke-width="1.512" d="M380 604H304V680H380V604Z"/><path stroke="#E5E5E5" stroke-width="1.512" d="M456 604H380V680H456V604Z"/><path stroke="#E5E5E5" stroke-width="1.512" d="M532 604H456V680H532V604Z"/><path stroke="#E5E5E5" stroke-width="1.512" d="M608 604H532V680H608V604Z"/><path fill="#E5E5E5" fill-opacity=".667" stroke="#E5E5E5" stroke-width="1.512" d="M684 604H608V680H684V604Z"/><path stroke="#E5E5E5" stroke-width="1.512" d="M760 604H684V680H760V604Z"/><path stroke="#E5E5E5" stroke-width="1.512" d="M836 604H760V680H836V604Z"/><path fill="#E5E5E5" fill-opacity=".996" stroke="#E5E5E5" stroke-width="1.512" d="M912 604H836V680H912V604Z"/><path stroke="#E5E5E5" stroke-width="1.512" d="M988 604H912V680H988V604Z"/><path stroke="#E5E5E5" stroke-width="1.512" d="M1064 604H988V680H1064V604Z"/><path stroke="#E5E5E5" stroke-width="1.512" d="M1140 604H1064V680H1140V604Z"/><path stroke="#E5E5E5" stroke-width="1.512" d="M1216 604H1140V680H1216V604Z"/><path fill="#E5E5E5" fill-opacity=".961" stroke="#E5E5E5" stroke-width="1.512" d="M1292 604H1216V680H1292V604Z"/><path stroke="#E5E5E5" stroke-width="1.512" d="M1368 604H1292V680H1368V604Z"/><path stroke="#E5E5E5" stroke-width="1.512" d="M1444 604H1368V680H1444V604Z"/><path fill="#E5E5E5" fill-opacity=".859" stroke="#E5E5E5" stroke-width="1.512" d="M1520 604H1444V680H1520V604Z"/><path stroke="#E5E5E5" stroke-width="1.512" d="M76 680H0V756H76V680Z"/><path stroke="#E5E5E5" stroke-width="1.512" d="M152 680H76V756H152V680Z"/><path stroke="#E5E5E5" stroke-width="1.512" d="M228 680H152V756H228V680Z"/><path stroke="#E5E5E5" stroke-width="1.512" d="M304 680H228V756H304V680Z"/><path stroke="#E5E5E5" stroke-width="1.512" d="M380 680H304V756H380V680Z"/><path fill="#E5E5E5" fill-opacity=".565" stroke="#E5E5E5" stroke-width="1.512" d="M456 680H380V756H456V680Z"/><path fill="#E5E5E5" fill-opacity=".02" stroke="#E5E5E5" stroke-width="1.512" d="M532 680H456V756H532V680Z"/><path stroke="#E5E5E5" stroke-width="1.512" d="M608 680H532V756H608V680Z"/><path stroke="#E5E5E5" stroke-width="1.512" d="M684 680H608V756H684V680Z"/><path fill="#E5E5E5" fill-opacity=".616" stroke="#E5E5E5" stroke-width="1.512" d="M760 680H684V756H760V680Z"/><path fill="#E5E5E5" fill-opacity=".255" stroke="#E5E5E5" stroke-width="1.512" d="M836 680H760V756H836V680Z"/><path stroke="#E5E5E5" stroke-width="1.512" d="M912 680H836V756H912V680Z"/><path stroke="#E5E5E5" stroke-width="1.512" d="M988 680H912V756H988V680Z"/><path fill="#E5E5E5" fill-opacity=".322" stroke="#E5E5E5" stroke-width="1.512" d="M1064 680H988V756H1064V680Z"/><path fill="#E5E5E5" fill-opacity=".522" stroke="#E5E5E5" stroke-width="1.512" d="M1140 680H1064V756H1140V680Z"/><path fill="#E5E5E5" fill-opacity=".706" stroke="#E5E5E5" stroke-width="1.512" d="M1216 680H1140V756H1216V680Z"/><path stroke="#E5E5E5" stroke-width="1.512" d="M1292 680H1216V756H1292V680Z"/><path stroke="#E5E5E5" stroke-width="1.512" d="M1368 680H1292V756H1368V680Z"/><path stroke="#E5E5E5" stroke-width="1.512" d="M1444 680H1368V756H1444V680Z"/><path stroke="#E5E5E5" stroke-width="1.512" d="M1520 680H1444V756H1520V680Z"/><path stroke="#E5E5E5" stroke-width="1.512" d="M76 756H0V832H76V756Z"/><path stroke="#E5E5E5" stroke-width="1.512" d="M152 756H76V832H152V756Z"/><path stroke="#E5E5E5" stroke-width="1.512" d="M228 756H152V832H228V756Z"/><path fill="#E5E5E5" fill-opacity=".604" stroke="#E5E5E5" stroke-width="1.512" d="M304 756H228V832H304V756Z"/><path stroke="#E5E5E5" stroke-width="1.512" d="M380 756H304V832H380V756Z"/><path stroke="#E5E5E5" stroke-width="1.512" d="M456 756H380V832H456V756Z"/><path stroke="#E5E5E5" stroke-width="1.512" d="M532 756H456V832H532V756Z"/><path stroke="#E5E5E5" stroke-width="1.512" d="M608 756H532V832H608V756Z"/><path stroke="#E5E5E5" stroke-width="1.512" d="M684 756H608V832H684V756Z"/><path stroke="#E5E5E5" stroke-width="1.512" d="M760 756H684V832H760V756Z"/><path stroke="#E5E5E5" stroke-width="1.512" d="M836 756H760V832H836V756Z"/><path stroke="#E5E5E5" stroke-width="1.512" d="M912 756H836V832H912V756Z"/><path stroke="#E5E5E5" stroke-width="1.512" d="M988 756H912V832H988V756Z"/><path stroke="#E5E5E5" stroke-width="1.512" d="M1064 756H988V832H1064V756Z"/><path fill="#E5E5E5" fill-opacity=".443" stroke="#E5E5E5" stroke-width="1.512" d="M1140 756H1064V832H1140V756Z"/><path stroke="#E5E5E5" stroke-width="1.512" d="M1216 756H1140V832H1216V756Z"/><path stroke="#E5E5E5" stroke-width="1.512" d="M1292 756H1216V832H1292V756Z"/><path stroke="#E5E5E5" stroke-width="1.512" d="M1368 756H1292V832H1368V756Z"/><path fill="#E5E5E5" fill-opacity=".576" stroke="#E5E5E5" stroke-width="1.512" d="M1444 756H1368V832H1444V756Z"/><path fill="#E5E5E5" fill-opacity=".49" stroke="#E5E5E5" stroke-width="1.512" d="M1520 756H1444V832H1520V756Z"/><path stroke="#E5E5E5" stroke-width="1.512" d="M76 832H0V908H76V832Z"/><path stroke="#E5E5E5" stroke-width="1.512" d="M152 832H76V908H152V832Z"/><path stroke="#E5E5E5" stroke-width="1.512" d="M228 832H152V908H228V832Z"/><path stroke="#E5E5E5" stroke-width="1.512" d="M304 832H228V908H304V832Z"/><path stroke="#E5E5E5" stroke-width="1.512" d="M380 832H304V908H380V832Z"/><path stroke="#E5E5E5" stroke-width="1.512" d="M456 832H380V908H456V832Z"/><path fill="#E5E5E5" fill-opacity=".22" stroke="#E5E5E5" stroke-width="1.512" d="M532 832H456V908H532V832Z"/><path stroke="#E5E5E5" stroke-width="1.512" d="M608 832H532V908H608V832Z"/><path fill="#E5E5E5" fill-opacity=".933" stroke="#E5E5E5" stroke-width="1.512" d="M684 832H608V908H684V832Z"/><path stroke="#E5E5E5" stroke-width="1.512" d="M760 832H684V908H760V832Z"/><path fill="#E5E5E5" fill-opacity=".129" stroke="#E5E5E5" stroke-width="1.512" d="M836 832H760V908H836V832Z"/><path stroke="#E5E5E5" stroke-width="1.512" d="M912 832H836V908H912V832Z"/><path stroke="#E5E5E5" stroke-width="1.512" d="M988 832H912V908H988V832Z"/><path stroke="#E5E5E5" stroke-width="1.512" d="M1064 832H988V908H1064V832Z"/><path fill="#E5E5E5" fill-opacity=".894" stroke="#E5E5E5" stroke-width="1.512" d="M1140 832H1064V908H1140V832Z"/><path stroke="#E5E5E5" stroke-width="1.512" d="M1216 832H1140V908H1216V832Z"/><path stroke="#E5E5E5" stroke-width="1.512" d="M1292 832H1216V908H1292V832Z"/><path stroke="#E5E5E5" stroke-width="1.512" d="M1368 832H1292V908H1368V832Z"/><path fill="#E5E5E5" fill-opacity=".733" stroke="#E5E5E5" stroke-width="1.512" d="M1444 832H1368V908H1444V832Z"/><path stroke="#E5E5E5" stroke-width="1.512" d="M1520 832H1444V908H1520V832Z"/><path fill="#E5E5E5" fill-opacity=".627" stroke="#E5E5E5" stroke-width="1.512" d="M76 908H0V984H76V908Z"/><path fill="#E5E5E5" fill-opacity=".439" stroke="#E5E5E5" stroke-width="1.512" d="M152 908H76V984H152V908Z"/><path stroke="#E5E5E5" stroke-width="1.512" d="M228 908H152V984H228V908Z"/><path fill="#E5E5E5" fill-opacity=".055" stroke="#E5E5E5" stroke-width="1.512" d="M304 908H228V984H304V908Z"/><path stroke="#E5E5E5" stroke-width="1.512" d="M380 908H304V984H380V908Z"/><path fill="#E5E5E5" fill-opacity=".804" stroke="#E5E5E5" stroke-width="1.512" d="M456 908H380V984H456V908Z"/><path stroke="#E5E5E5" stroke-width="1.512" d="M532 908H456V984H532V908Z"/><path fill="#E5E5E5" fill-opacity=".573" stroke="#E5E5E5" stroke-width="1.512" d="M608 908H532V984H608V908Z"/><path stroke="#E5E5E5" stroke-width="1.512" d="M684 908H608V984H684V908Z"/><path stroke="#E5E5E5" stroke-width="1.512" d="M760 908H684V984H760V908Z"/><path stroke="#E5E5E5" stroke-width="1.512" d="M836 908H760V984H836V908Z"/><path stroke="#E5E5E5" stroke-width="1.512" d="M912 908H836V984H912V908Z"/><path stroke="#E5E5E5" stroke-width="1.512" d="M988 908H912V984H988V908Z"/><path stroke="#E5E5E5" stroke-width="1.512" d="M1064 908H988V984H1064V908Z"/><path stroke="#E5E5E5" stroke-width="1.512" d="M1140 908H1064V984H1140V908Z"/><path fill="#E5E5E5" fill-opacity=".196" stroke="#E5E5E5" stroke-width="1.512" d="M1216 908H1140V984H1216V908Z"/><path stroke="#E5E5E5" stroke-width="1.512" d="M1292 908H1216V984H1292V908Z"/><path stroke="#E5E5E5" stroke-width="1.512" d="M1368 908H1292V984H1368V908Z"/><path stroke="#E5E5E5" stroke-width="1.512" d="M1444 908H1368V984H1444V908Z"/><path fill="#E5E5E5" fill-opacity=".886" stroke="#E5E5E5" stroke-width="1.512" d="M1520 908H1444V984H1520V908Z"/></g></g><defs><radialGradient id="paint0_radial_204_881" cx="0" cy="0" r="1" gradientTransform="translate(756 487) scale(756 491)" gradientUnits="userSpaceOnUse"><stop stop-color="#fff"/><stop offset="1" stop-color="#fff" stop-opacity="0"/></radialGradient><clipPath id="clip0_204_881"><rect width="1512" height="982" fill="#fff" transform="translate(0 -4)"/></clipPath></defs></svg>