<svg width="1512" height="978" viewBox="0 0 1512 978" fill="none" xmlns="http://www.w3.org/2000/svg">
<g clip-path="url(#clip0_204_881)">
<mask id="mask0_204_881" style="mask-type:luminance" maskUnits="userSpaceOnUse" x="0" y="-4" width="1512" height="982">
<path d="M1512 -4H0V978H1512V-4Z" fill="url(#paint0_radial_204_881)"/>
</mask>
<g mask="url(#mask0_204_881)">
<path d="M76 -4H0V72H76V-4Z" stroke="#E5E5E5" stroke-width="1.512"/>
<path d="M152 -4H76V72H152V-4Z" stroke="#E5E5E5" stroke-width="1.512"/>
<path d="M228 -4H152V72H228V-4Z" fill="#E5E5E5" fill-opacity="0.541176" stroke="#E5E5E5" stroke-width="1.512"/>
<path d="M304 -4H228V72H304V-4Z" stroke="#E5E5E5" stroke-width="1.512"/>
<path d="M380 -4H304V72H380V-4Z" stroke="#E5E5E5" stroke-width="1.512"/>
<path d="M456 -4H380V72H456V-4Z" fill="#E5E5E5" fill-opacity="0.278431" stroke="#E5E5E5" stroke-width="1.512"/>
<path d="M532 -4H456V72H532V-4Z" fill="#E5E5E5" fill-opacity="0.588235" stroke="#E5E5E5" stroke-width="1.512"/>
<path d="M608 -4H532V72H608V-4Z" stroke="#E5E5E5" stroke-width="1.512"/>
<path d="M684 -4H608V72H684V-4Z" stroke="#E5E5E5" stroke-width="1.512"/>
<path d="M760 -4H684V72H760V-4Z" stroke="#E5E5E5" stroke-width="1.512"/>
<path d="M836 -4H760V72H836V-4Z" stroke="#E5E5E5" stroke-width="1.512"/>
<path d="M912 -4H836V72H912V-4Z" stroke="#E5E5E5" stroke-width="1.512"/>
<path d="M988 -4H912V72H988V-4Z" fill="#E5E5E5" fill-opacity="0.870588" stroke="#E5E5E5" stroke-width="1.512"/>
<path d="M1064 -4H988V72H1064V-4Z" stroke="#E5E5E5" stroke-width="1.512"/>
<path d="M1140 -4H1064V72H1140V-4Z" stroke="#E5E5E5" stroke-width="1.512"/>
<path d="M1216 -4H1140V72H1216V-4Z" stroke="#E5E5E5" stroke-width="1.512"/>
<path d="M1292 -4H1216V72H1292V-4Z" fill="#E5E5E5" fill-opacity="0.627451" stroke="#E5E5E5" stroke-width="1.512"/>
<path d="M1368 -4H1292V72H1368V-4Z" stroke="#E5E5E5" stroke-width="1.512"/>
<path d="M1444 -4H1368V72H1444V-4Z" stroke="#E5E5E5" stroke-width="1.512"/>
<path d="M1520 -4H1444V72H1520V-4Z" stroke="#E5E5E5" stroke-width="1.512"/>
<path d="M76 72H0V148H76V72Z" fill="#E5E5E5" fill-opacity="0.878431" stroke="#E5E5E5" stroke-width="1.512"/>
<path d="M152 72H76V148H152V72Z" stroke="#E5E5E5" stroke-width="1.512"/>
<path d="M228 72H152V148H228V72Z" stroke="#E5E5E5" stroke-width="1.512"/>
<path d="M304 72H228V148H304V72Z" stroke="#E5E5E5" stroke-width="1.512"/>
<path d="M380 72H304V148H380V72Z" fill="#E5E5E5" fill-opacity="0.545098" stroke="#E5E5E5" stroke-width="1.512"/>
<path d="M456 72H380V148H456V72Z" stroke="#E5E5E5" stroke-width="1.512"/>
<path d="M532 72H456V148H532V72Z" fill="#E5E5E5" fill-opacity="0.686275" stroke="#E5E5E5" stroke-width="1.512"/>
<path d="M608 72H532V148H608V72Z" stroke="#E5E5E5" stroke-width="1.512"/>
<path d="M684 72H608V148H684V72Z" fill="#E5E5E5" fill-opacity="0.447059" stroke="#E5E5E5" stroke-width="1.512"/>
<path d="M760 72H684V148H760V72Z" stroke="#E5E5E5" stroke-width="1.512"/>
<path d="M836 72H760V148H836V72Z" fill="#E5E5E5" fill-opacity="0.0901961" stroke="#E5E5E5" stroke-width="1.512"/>
<path d="M912 72H836V148H912V72Z" stroke="#E5E5E5" stroke-width="1.512"/>
<path d="M988 72H912V148H988V72Z" stroke="#E5E5E5" stroke-width="1.512"/>
<path d="M1064 72H988V148H1064V72Z" fill="#E5E5E5" fill-opacity="0.0901961" stroke="#E5E5E5" stroke-width="1.512"/>
<path d="M1140 72H1064V148H1140V72Z" stroke="#E5E5E5" stroke-width="1.512"/>
<path d="M1216 72H1140V148H1216V72Z" stroke="#E5E5E5" stroke-width="1.512"/>
<path d="M1292 72H1216V148H1292V72Z" stroke="#E5E5E5" stroke-width="1.512"/>
<path d="M1368 72H1292V148H1368V72Z" stroke="#E5E5E5" stroke-width="1.512"/>
<path d="M1444 72H1368V148H1444V72Z" fill="#E5E5E5" fill-opacity="0.423529" stroke="#E5E5E5" stroke-width="1.512"/>
<path d="M1520 72H1444V148H1520V72Z" fill="#E5E5E5" fill-opacity="0.266667" stroke="#E5E5E5" stroke-width="1.512"/>
<path d="M76 148H0V224H76V148Z" stroke="#E5E5E5" stroke-width="1.512"/>
<path d="M152 148H76V224H152V148Z" stroke="#E5E5E5" stroke-width="1.512"/>
<path d="M228 148H152V224H228V148Z" stroke="#E5E5E5" stroke-width="1.512"/>
<path d="M304 148H228V224H304V148Z" fill="#E5E5E5" fill-opacity="0.611765" stroke="#E5E5E5" stroke-width="1.512"/>
<path d="M380 148H304V224H380V148Z" stroke="#E5E5E5" stroke-width="1.512"/>
<path d="M456 148H380V224H456V148Z" stroke="#E5E5E5" stroke-width="1.512"/>
<path d="M532 148H456V224H532V148Z" stroke="#E5E5E5" stroke-width="1.512"/>
<path d="M608 148H532V224H608V148Z" stroke="#E5E5E5" stroke-width="1.512"/>
<path d="M684 148H608V224H684V148Z" stroke="#E5E5E5" stroke-width="1.512"/>
<path d="M760 148H684V224H760V148Z" fill="#E5E5E5" fill-opacity="0.486275" stroke="#E5E5E5" stroke-width="1.512"/>
<path d="M836 148H760V224H836V148Z" stroke="#E5E5E5" stroke-width="1.512"/>
<path d="M912 148H836V224H912V148Z" stroke="#E5E5E5" stroke-width="1.512"/>
<path d="M988 148H912V224H988V148Z" fill="#E5E5E5" fill-opacity="0.160784" stroke="#E5E5E5" stroke-width="1.512"/>
<path d="M1064 148H988V224H1064V148Z" stroke="#E5E5E5" stroke-width="1.512"/>
<path d="M1140 148H1064V224H1140V148Z" stroke="#E5E5E5" stroke-width="1.512"/>
<path d="M1216 148H1140V224H1216V148Z" stroke="#E5E5E5" stroke-width="1.512"/>
<path d="M1292 148H1216V224H1292V148Z" fill="#E5E5E5" fill-opacity="0.521569" stroke="#E5E5E5" stroke-width="1.512"/>
<path d="M1368 148H1292V224H1368V148Z" fill="#E5E5E5" fill-opacity="0.431373" stroke="#E5E5E5" stroke-width="1.512"/>
<path d="M1444 148H1368V224H1444V148Z" fill="#E5E5E5" fill-opacity="0.145098" stroke="#E5E5E5" stroke-width="1.512"/>
<path d="M1520 148H1444V224H1520V148Z" stroke="#E5E5E5" stroke-width="1.512"/>
<path d="M76 224H0V300H76V224Z" stroke="#E5E5E5" stroke-width="1.512"/>
<path d="M152 224H76V300H152V224Z" fill="#E5E5E5" fill-opacity="0.458824" stroke="#E5E5E5" stroke-width="1.512"/>
<path d="M228 224H152V300H228V224Z" stroke="#E5E5E5" stroke-width="1.512"/>
<path d="M304 224H228V300H304V224Z" stroke="#E5E5E5" stroke-width="1.512"/>
<path d="M380 224H304V300H380V224Z" stroke="#E5E5E5" stroke-width="1.512"/>
<path d="M456 224H380V300H456V224Z" stroke="#E5E5E5" stroke-width="1.512"/>
<path d="M532 224H456V300H532V224Z" stroke="#E5E5E5" stroke-width="1.512"/>
<path d="M608 224H532V300H608V224Z" stroke="#E5E5E5" stroke-width="1.512"/>
<path d="M684 224H608V300H684V224Z" fill="#E5E5E5" fill-opacity="0.815686" stroke="#E5E5E5" stroke-width="1.512"/>
<path d="M760 224H684V300H760V224Z" stroke="#E5E5E5" stroke-width="1.512"/>
<path d="M836 224H760V300H836V224Z" stroke="#E5E5E5" stroke-width="1.512"/>
<path d="M912 224H836V300H912V224Z" stroke="#E5E5E5" stroke-width="1.512"/>
<path d="M988 224H912V300H988V224Z" fill="#E5E5E5" fill-opacity="0.811765" stroke="#E5E5E5" stroke-width="1.512"/>
<path d="M1064 224H988V300H1064V224Z" stroke="#E5E5E5" stroke-width="1.512"/>
<path d="M1140 224H1064V300H1140V224Z" fill="#E5E5E5" fill-opacity="0.317647" stroke="#E5E5E5" stroke-width="1.512"/>
<path d="M1216 224H1140V300H1216V224Z" stroke="#E5E5E5" stroke-width="1.512"/>
<path d="M1292 224H1216V300H1292V224Z" fill="#E5E5E5" fill-opacity="0.392157" stroke="#E5E5E5" stroke-width="1.512"/>
<path d="M1368 224H1292V300H1368V224Z" stroke="#E5E5E5" stroke-width="1.512"/>
<path d="M1444 224H1368V300H1444V224Z" fill="#E5E5E5" fill-opacity="0.513726" stroke="#E5E5E5" stroke-width="1.512"/>
<path d="M1520 224H1444V300H1520V224Z" stroke="#E5E5E5" stroke-width="1.512"/>
<path d="M76 300H0V376H76V300Z" stroke="#E5E5E5" stroke-width="1.512"/>
<path d="M152 300H76V376H152V300Z" stroke="#E5E5E5" stroke-width="1.512"/>
<path d="M228 300H152V376H228V300Z" stroke="#E5E5E5" stroke-width="1.512"/>
<path d="M304 300H228V376H304V300Z" fill="#E5E5E5" fill-opacity="0.972549" stroke="#E5E5E5" stroke-width="1.512"/>
<path d="M380 300H304V376H380V300Z" stroke="#E5E5E5" stroke-width="1.512"/>
<path d="M456 300H380V376H456V300Z" fill="#E5E5E5" fill-opacity="0.0470588" stroke="#E5E5E5" stroke-width="1.512"/>
<path d="M532 300H456V376H532V300Z" stroke="#E5E5E5" stroke-width="1.512"/>
<path d="M608 300H532V376H608V300Z" stroke="#E5E5E5" stroke-width="1.512"/>
<path d="M684 300H608V376H684V300Z" stroke="#E5E5E5" stroke-width="1.512"/>
<path d="M760 300H684V376H760V300Z" stroke="#E5E5E5" stroke-width="1.512"/>
<path d="M836 300H760V376H836V300Z" stroke="#E5E5E5" stroke-width="1.512"/>
<path d="M912 300H836V376H912V300Z" stroke="#E5E5E5" stroke-width="1.512"/>
<path d="M988 300H912V376H988V300Z" stroke="#E5E5E5" stroke-width="1.512"/>
<path d="M1064 300H988V376H1064V300Z" fill="#E5E5E5" fill-opacity="0.772549" stroke="#E5E5E5" stroke-width="1.512"/>
<path d="M1140 300H1064V376H1140V300Z" fill="#E5E5E5" fill-opacity="0.984314" stroke="#E5E5E5" stroke-width="1.512"/>
<path d="M1216 300H1140V376H1216V300Z" stroke="#E5E5E5" stroke-width="1.512"/>
<path d="M1292 300H1216V376H1292V300Z" stroke="#E5E5E5" stroke-width="1.512"/>
<path d="M1368 300H1292V376H1368V300Z" stroke="#E5E5E5" stroke-width="1.512"/>
<path d="M1444 300H1368V376H1444V300Z" stroke="#E5E5E5" stroke-width="1.512"/>
<path d="M1520 300H1444V376H1520V300Z" stroke="#E5E5E5" stroke-width="1.512"/>
<path d="M76 376H0V452H76V376Z" stroke="#E5E5E5" stroke-width="1.512"/>
<path d="M152 376H76V452H152V376Z" stroke="#E5E5E5" stroke-width="1.512"/>
<path d="M228 376H152V452H228V376Z" stroke="#E5E5E5" stroke-width="1.512"/>
<path d="M304 376H228V452H304V376Z" fill="#E5E5E5" fill-opacity="0.968627" stroke="#E5E5E5" stroke-width="1.512"/>
<path d="M380 376H304V452H380V376Z" stroke="#E5E5E5" stroke-width="1.512"/>
<path d="M456 376H380V452H456V376Z" stroke="#E5E5E5" stroke-width="1.512"/>
<path d="M532 376H456V452H532V376Z" fill="#E5E5E5" fill-opacity="0.615686" stroke="#E5E5E5" stroke-width="1.512"/>
<path d="M608 376H532V452H608V376Z" stroke="#E5E5E5" stroke-width="1.512"/>
<path d="M684 376H608V452H684V376Z" stroke="#E5E5E5" stroke-width="1.512"/>
<path d="M760 376H684V452H760V376Z" stroke="#E5E5E5" stroke-width="1.512"/>
<path d="M836 376H760V452H836V376Z" stroke="#E5E5E5" stroke-width="1.512"/>
<path d="M912 376H836V452H912V376Z" fill="#E5E5E5" fill-opacity="0.419608" stroke="#E5E5E5" stroke-width="1.512"/>
<path d="M988 376H912V452H988V376Z" stroke="#E5E5E5" stroke-width="1.512"/>
<path d="M1064 376H988V452H1064V376Z" stroke="#E5E5E5" stroke-width="1.512"/>
<path d="M1140 376H1064V452H1140V376Z" stroke="#E5E5E5" stroke-width="1.512"/>
<path d="M1216 376H1140V452H1216V376Z" stroke="#E5E5E5" stroke-width="1.512"/>
<path d="M1292 376H1216V452H1292V376Z" stroke="#E5E5E5" stroke-width="1.512"/>
<path d="M1368 376H1292V452H1368V376Z" stroke="#E5E5E5" stroke-width="1.512"/>
<path d="M1444 376H1368V452H1444V376Z" fill="#E5E5E5" fill-opacity="0.917647" stroke="#E5E5E5" stroke-width="1.512"/>
<path d="M1520 376H1444V452H1520V376Z" stroke="#E5E5E5" stroke-width="1.512"/>
<path d="M76 452H0V528H76V452Z" stroke="#E5E5E5" stroke-width="1.512"/>
<path d="M152 452H76V528H152V452Z" stroke="#E5E5E5" stroke-width="1.512"/>
<path d="M228 452H152V528H228V452Z" fill="#E5E5E5" fill-opacity="0.321569" stroke="#E5E5E5" stroke-width="1.512"/>
<path d="M304 452H228V528H304V452Z" stroke="#E5E5E5" stroke-width="1.512"/>
<path d="M380 452H304V528H380V452Z" stroke="#E5E5E5" stroke-width="1.512"/>
<path d="M456 452H380V528H456V452Z" stroke="#E5E5E5" stroke-width="1.512"/>
<path d="M532 452H456V528H532V452Z" stroke="#E5E5E5" stroke-width="1.512"/>
<path d="M608 452H532V528H608V452Z" stroke="#E5E5E5" stroke-width="1.512"/>
<path d="M684 452H608V528H684V452Z" stroke="#E5E5E5" stroke-width="1.512"/>
<path d="M760 452H684V528H760V452Z" fill="#E5E5E5" fill-opacity="0.321569" stroke="#E5E5E5" stroke-width="1.512"/>
<path d="M836 452H760V528H836V452Z" fill="#E5E5E5" fill-opacity="0.239216" stroke="#E5E5E5" stroke-width="1.512"/>
<path d="M912 452H836V528H912V452Z" stroke="#E5E5E5" stroke-width="1.512"/>
<path d="M988 452H912V528H988V452Z" stroke="#E5E5E5" stroke-width="1.512"/>
<path d="M1064 452H988V528H1064V452Z" fill="#E5E5E5" fill-opacity="0.0941176" stroke="#E5E5E5" stroke-width="1.512"/>
<path d="M1140 452H1064V528H1140V452Z" stroke="#E5E5E5" stroke-width="1.512"/>
<path d="M1216 452H1140V528H1216V452Z" stroke="#E5E5E5" stroke-width="1.512"/>
<path d="M1292 452H1216V528H1292V452Z" fill="#E5E5E5" fill-opacity="0.501961" stroke="#E5E5E5" stroke-width="1.512"/>
<path d="M1368 452H1292V528H1368V452Z" fill="#E5E5E5" fill-opacity="0.137255" stroke="#E5E5E5" stroke-width="1.512"/>
<path d="M1444 452H1368V528H1444V452Z" fill="#E5E5E5" fill-opacity="0.0470588" stroke="#E5E5E5" stroke-width="1.512"/>
<path d="M1520 452H1444V528H1520V452Z" stroke="#E5E5E5" stroke-width="1.512"/>
<path d="M76 528H0V604H76V528Z" fill="#E5E5E5" fill-opacity="0.988235" stroke="#E5E5E5" stroke-width="1.512"/>
<path d="M152 528H76V604H152V528Z" stroke="#E5E5E5" stroke-width="1.512"/>
<path d="M228 528H152V604H228V528Z" stroke="#E5E5E5" stroke-width="1.512"/>
<path d="M304 528H228V604H304V528Z" stroke="#E5E5E5" stroke-width="1.512"/>
<path d="M380 528H304V604H380V528Z" stroke="#E5E5E5" stroke-width="1.512"/>
<path d="M456 528H380V604H456V528Z" fill="#E5E5E5" fill-opacity="0.537255" stroke="#E5E5E5" stroke-width="1.512"/>
<path d="M532 528H456V604H532V528Z" stroke="#E5E5E5" stroke-width="1.512"/>
<path d="M608 528H532V604H608V528Z" stroke="#E5E5E5" stroke-width="1.512"/>
<path d="M684 528H608V604H684V528Z" stroke="#E5E5E5" stroke-width="1.512"/>
<path d="M760 528H684V604H760V528Z" stroke="#E5E5E5" stroke-width="1.512"/>
<path d="M836 528H760V604H836V528Z" stroke="#E5E5E5" stroke-width="1.512"/>
<path d="M912 528H836V604H912V528Z" fill="#E5E5E5" fill-opacity="0.505882" stroke="#E5E5E5" stroke-width="1.512"/>
<path d="M988 528H912V604H988V528Z" fill="#E5E5E5" fill-opacity="0.545098" stroke="#E5E5E5" stroke-width="1.512"/>
<path d="M1064 528H988V604H1064V528Z" fill="#E5E5E5" fill-opacity="0.027451" stroke="#E5E5E5" stroke-width="1.512"/>
<path d="M1140 528H1064V604H1140V528Z" fill="#E5E5E5" fill-opacity="0.266667" stroke="#E5E5E5" stroke-width="1.512"/>
<path d="M1216 528H1140V604H1216V528Z" stroke="#E5E5E5" stroke-width="1.512"/>
<path d="M1292 528H1216V604H1292V528Z" stroke="#E5E5E5" stroke-width="1.512"/>
<path d="M1368 528H1292V604H1368V528Z" fill="#E5E5E5" fill-opacity="0.356863" stroke="#E5E5E5" stroke-width="1.512"/>
<path d="M1444 528H1368V604H1444V528Z" stroke="#E5E5E5" stroke-width="1.512"/>
<path d="M1520 528H1444V604H1520V528Z" stroke="#E5E5E5" stroke-width="1.512"/>
<path d="M76 604H0V680H76V604Z" fill="#E5E5E5" fill-opacity="0.592157" stroke="#E5E5E5" stroke-width="1.512"/>
<path d="M152 604H76V680H152V604Z" fill="#E5E5E5" fill-opacity="0.223529" stroke="#E5E5E5" stroke-width="1.512"/>
<path d="M228 604H152V680H228V604Z" fill="#E5E5E5" fill-opacity="0.490196" stroke="#E5E5E5" stroke-width="1.512"/>
<path d="M304 604H228V680H304V604Z" fill="#E5E5E5" fill-opacity="0.254902" stroke="#E5E5E5" stroke-width="1.512"/>
<path d="M380 604H304V680H380V604Z" stroke="#E5E5E5" stroke-width="1.512"/>
<path d="M456 604H380V680H456V604Z" stroke="#E5E5E5" stroke-width="1.512"/>
<path d="M532 604H456V680H532V604Z" stroke="#E5E5E5" stroke-width="1.512"/>
<path d="M608 604H532V680H608V604Z" stroke="#E5E5E5" stroke-width="1.512"/>
<path d="M684 604H608V680H684V604Z" fill="#E5E5E5" fill-opacity="0.666667" stroke="#E5E5E5" stroke-width="1.512"/>
<path d="M760 604H684V680H760V604Z" stroke="#E5E5E5" stroke-width="1.512"/>
<path d="M836 604H760V680H836V604Z" stroke="#E5E5E5" stroke-width="1.512"/>
<path d="M912 604H836V680H912V604Z" fill="#E5E5E5" fill-opacity="0.996078" stroke="#E5E5E5" stroke-width="1.512"/>
<path d="M988 604H912V680H988V604Z" stroke="#E5E5E5" stroke-width="1.512"/>
<path d="M1064 604H988V680H1064V604Z" stroke="#E5E5E5" stroke-width="1.512"/>
<path d="M1140 604H1064V680H1140V604Z" stroke="#E5E5E5" stroke-width="1.512"/>
<path d="M1216 604H1140V680H1216V604Z" stroke="#E5E5E5" stroke-width="1.512"/>
<path d="M1292 604H1216V680H1292V604Z" fill="#E5E5E5" fill-opacity="0.960784" stroke="#E5E5E5" stroke-width="1.512"/>
<path d="M1368 604H1292V680H1368V604Z" stroke="#E5E5E5" stroke-width="1.512"/>
<path d="M1444 604H1368V680H1444V604Z" stroke="#E5E5E5" stroke-width="1.512"/>
<path d="M1520 604H1444V680H1520V604Z" fill="#E5E5E5" fill-opacity="0.858824" stroke="#E5E5E5" stroke-width="1.512"/>
<path d="M76 680H0V756H76V680Z" stroke="#E5E5E5" stroke-width="1.512"/>
<path d="M152 680H76V756H152V680Z" stroke="#E5E5E5" stroke-width="1.512"/>
<path d="M228 680H152V756H228V680Z" stroke="#E5E5E5" stroke-width="1.512"/>
<path d="M304 680H228V756H304V680Z" stroke="#E5E5E5" stroke-width="1.512"/>
<path d="M380 680H304V756H380V680Z" stroke="#E5E5E5" stroke-width="1.512"/>
<path d="M456 680H380V756H456V680Z" fill="#E5E5E5" fill-opacity="0.564706" stroke="#E5E5E5" stroke-width="1.512"/>
<path d="M532 680H456V756H532V680Z" fill="#E5E5E5" fill-opacity="0.0196078" stroke="#E5E5E5" stroke-width="1.512"/>
<path d="M608 680H532V756H608V680Z" stroke="#E5E5E5" stroke-width="1.512"/>
<path d="M684 680H608V756H684V680Z" stroke="#E5E5E5" stroke-width="1.512"/>
<path d="M760 680H684V756H760V680Z" fill="#E5E5E5" fill-opacity="0.615686" stroke="#E5E5E5" stroke-width="1.512"/>
<path d="M836 680H760V756H836V680Z" fill="#E5E5E5" fill-opacity="0.254902" stroke="#E5E5E5" stroke-width="1.512"/>
<path d="M912 680H836V756H912V680Z" stroke="#E5E5E5" stroke-width="1.512"/>
<path d="M988 680H912V756H988V680Z" stroke="#E5E5E5" stroke-width="1.512"/>
<path d="M1064 680H988V756H1064V680Z" fill="#E5E5E5" fill-opacity="0.321569" stroke="#E5E5E5" stroke-width="1.512"/>
<path d="M1140 680H1064V756H1140V680Z" fill="#E5E5E5" fill-opacity="0.521569" stroke="#E5E5E5" stroke-width="1.512"/>
<path d="M1216 680H1140V756H1216V680Z" fill="#E5E5E5" fill-opacity="0.705882" stroke="#E5E5E5" stroke-width="1.512"/>
<path d="M1292 680H1216V756H1292V680Z" stroke="#E5E5E5" stroke-width="1.512"/>
<path d="M1368 680H1292V756H1368V680Z" stroke="#E5E5E5" stroke-width="1.512"/>
<path d="M1444 680H1368V756H1444V680Z" stroke="#E5E5E5" stroke-width="1.512"/>
<path d="M1520 680H1444V756H1520V680Z" stroke="#E5E5E5" stroke-width="1.512"/>
<path d="M76 756H0V832H76V756Z" stroke="#E5E5E5" stroke-width="1.512"/>
<path d="M152 756H76V832H152V756Z" stroke="#E5E5E5" stroke-width="1.512"/>
<path d="M228 756H152V832H228V756Z" stroke="#E5E5E5" stroke-width="1.512"/>
<path d="M304 756H228V832H304V756Z" fill="#E5E5E5" fill-opacity="0.603922" stroke="#E5E5E5" stroke-width="1.512"/>
<path d="M380 756H304V832H380V756Z" stroke="#E5E5E5" stroke-width="1.512"/>
<path d="M456 756H380V832H456V756Z" stroke="#E5E5E5" stroke-width="1.512"/>
<path d="M532 756H456V832H532V756Z" stroke="#E5E5E5" stroke-width="1.512"/>
<path d="M608 756H532V832H608V756Z" stroke="#E5E5E5" stroke-width="1.512"/>
<path d="M684 756H608V832H684V756Z" stroke="#E5E5E5" stroke-width="1.512"/>
<path d="M760 756H684V832H760V756Z" stroke="#E5E5E5" stroke-width="1.512"/>
<path d="M836 756H760V832H836V756Z" stroke="#E5E5E5" stroke-width="1.512"/>
<path d="M912 756H836V832H912V756Z" stroke="#E5E5E5" stroke-width="1.512"/>
<path d="M988 756H912V832H988V756Z" stroke="#E5E5E5" stroke-width="1.512"/>
<path d="M1064 756H988V832H1064V756Z" stroke="#E5E5E5" stroke-width="1.512"/>
<path d="M1140 756H1064V832H1140V756Z" fill="#E5E5E5" fill-opacity="0.443137" stroke="#E5E5E5" stroke-width="1.512"/>
<path d="M1216 756H1140V832H1216V756Z" stroke="#E5E5E5" stroke-width="1.512"/>
<path d="M1292 756H1216V832H1292V756Z" stroke="#E5E5E5" stroke-width="1.512"/>
<path d="M1368 756H1292V832H1368V756Z" stroke="#E5E5E5" stroke-width="1.512"/>
<path d="M1444 756H1368V832H1444V756Z" fill="#E5E5E5" fill-opacity="0.576471" stroke="#E5E5E5" stroke-width="1.512"/>
<path d="M1520 756H1444V832H1520V756Z" fill="#E5E5E5" fill-opacity="0.490196" stroke="#E5E5E5" stroke-width="1.512"/>
<path d="M76 832H0V908H76V832Z" stroke="#E5E5E5" stroke-width="1.512"/>
<path d="M152 832H76V908H152V832Z" stroke="#E5E5E5" stroke-width="1.512"/>
<path d="M228 832H152V908H228V832Z" stroke="#E5E5E5" stroke-width="1.512"/>
<path d="M304 832H228V908H304V832Z" stroke="#E5E5E5" stroke-width="1.512"/>
<path d="M380 832H304V908H380V832Z" stroke="#E5E5E5" stroke-width="1.512"/>
<path d="M456 832H380V908H456V832Z" stroke="#E5E5E5" stroke-width="1.512"/>
<path d="M532 832H456V908H532V832Z" fill="#E5E5E5" fill-opacity="0.219608" stroke="#E5E5E5" stroke-width="1.512"/>
<path d="M608 832H532V908H608V832Z" stroke="#E5E5E5" stroke-width="1.512"/>
<path d="M684 832H608V908H684V832Z" fill="#E5E5E5" fill-opacity="0.933333" stroke="#E5E5E5" stroke-width="1.512"/>
<path d="M760 832H684V908H760V832Z" stroke="#E5E5E5" stroke-width="1.512"/>
<path d="M836 832H760V908H836V832Z" fill="#E5E5E5" fill-opacity="0.129412" stroke="#E5E5E5" stroke-width="1.512"/>
<path d="M912 832H836V908H912V832Z" stroke="#E5E5E5" stroke-width="1.512"/>
<path d="M988 832H912V908H988V832Z" stroke="#E5E5E5" stroke-width="1.512"/>
<path d="M1064 832H988V908H1064V832Z" stroke="#E5E5E5" stroke-width="1.512"/>
<path d="M1140 832H1064V908H1140V832Z" fill="#E5E5E5" fill-opacity="0.894118" stroke="#E5E5E5" stroke-width="1.512"/>
<path d="M1216 832H1140V908H1216V832Z" stroke="#E5E5E5" stroke-width="1.512"/>
<path d="M1292 832H1216V908H1292V832Z" stroke="#E5E5E5" stroke-width="1.512"/>
<path d="M1368 832H1292V908H1368V832Z" stroke="#E5E5E5" stroke-width="1.512"/>
<path d="M1444 832H1368V908H1444V832Z" fill="#E5E5E5" fill-opacity="0.733333" stroke="#E5E5E5" stroke-width="1.512"/>
<path d="M1520 832H1444V908H1520V832Z" stroke="#E5E5E5" stroke-width="1.512"/>
<path d="M76 908H0V984H76V908Z" fill="#E5E5E5" fill-opacity="0.627451" stroke="#E5E5E5" stroke-width="1.512"/>
<path d="M152 908H76V984H152V908Z" fill="#E5E5E5" fill-opacity="0.439216" stroke="#E5E5E5" stroke-width="1.512"/>
<path d="M228 908H152V984H228V908Z" stroke="#E5E5E5" stroke-width="1.512"/>
<path d="M304 908H228V984H304V908Z" fill="#E5E5E5" fill-opacity="0.054902" stroke="#E5E5E5" stroke-width="1.512"/>
<path d="M380 908H304V984H380V908Z" stroke="#E5E5E5" stroke-width="1.512"/>
<path d="M456 908H380V984H456V908Z" fill="#E5E5E5" fill-opacity="0.803922" stroke="#E5E5E5" stroke-width="1.512"/>
<path d="M532 908H456V984H532V908Z" stroke="#E5E5E5" stroke-width="1.512"/>
<path d="M608 908H532V984H608V908Z" fill="#E5E5E5" fill-opacity="0.572549" stroke="#E5E5E5" stroke-width="1.512"/>
<path d="M684 908H608V984H684V908Z" stroke="#E5E5E5" stroke-width="1.512"/>
<path d="M760 908H684V984H760V908Z" stroke="#E5E5E5" stroke-width="1.512"/>
<path d="M836 908H760V984H836V908Z" stroke="#E5E5E5" stroke-width="1.512"/>
<path d="M912 908H836V984H912V908Z" stroke="#E5E5E5" stroke-width="1.512"/>
<path d="M988 908H912V984H988V908Z" stroke="#E5E5E5" stroke-width="1.512"/>
<path d="M1064 908H988V984H1064V908Z" stroke="#E5E5E5" stroke-width="1.512"/>
<path d="M1140 908H1064V984H1140V908Z" stroke="#E5E5E5" stroke-width="1.512"/>
<path d="M1216 908H1140V984H1216V908Z" fill="#E5E5E5" fill-opacity="0.196078" stroke="#E5E5E5" stroke-width="1.512"/>
<path d="M1292 908H1216V984H1292V908Z" stroke="#E5E5E5" stroke-width="1.512"/>
<path d="M1368 908H1292V984H1368V908Z" stroke="#E5E5E5" stroke-width="1.512"/>
<path d="M1444 908H1368V984H1444V908Z" stroke="#E5E5E5" stroke-width="1.512"/>
<path d="M1520 908H1444V984H1520V908Z" fill="#E5E5E5" fill-opacity="0.886275" stroke="#E5E5E5" stroke-width="1.512"/>
</g>
</g>
<defs>
<radialGradient id="paint0_radial_204_881" cx="0" cy="0" r="1" gradientUnits="userSpaceOnUse" gradientTransform="translate(756 487) scale(756 491)">
<stop stop-color="white"/>
<stop offset="1" stop-color="white" stop-opacity="0"/>
</radialGradient>
<clipPath id="clip0_204_881">
<rect width="1512" height="982" fill="white" transform="translate(0 -4)"/>
</clipPath>
</defs>
</svg>
